<svg width="61" height="60" viewBox="0 0 61 60" fill="none" xmlns="http://www.w3.org/2000/svg">
<g id="react" clip-path="url(#clip0_8_1252)">
<path id="Vector" d="M49.1896 20.8264C48.5568 20.6169 47.924 20.419 47.2912 20.2327C47.3967 19.802 47.4904 19.3712 47.5842 18.9405C49.0256 12.002 48.0764 6.42569 44.8771 4.58631C41.7951 2.82842 36.7678 4.65616 31.6818 9.05671C31.1779 9.48745 30.6857 9.94147 30.217 10.3955C29.9006 10.0928 29.5724 9.79013 29.2443 9.49909C23.9123 4.79586 18.5685 2.81678 15.3693 4.6678C12.299 6.43734 11.3849 11.6877 12.674 18.2536C12.8029 18.9055 12.9435 19.5458 13.1076 20.1978C12.3576 20.4073 11.6193 20.6401 10.9279 20.8846C4.6701 23.0383 0.181824 26.4377 0.181824 29.9535C0.181824 33.5857 4.96307 37.2295 11.467 39.4414C11.9943 39.616 12.5217 39.7907 13.0607 39.942C12.8849 40.6405 12.7326 41.3274 12.592 42.0375C11.3615 48.4986 12.3224 53.621 15.3928 55.3788C18.5568 57.1949 23.8771 55.3323 29.0568 50.827C29.467 50.4661 29.8771 50.0935 30.2873 49.6977C30.8029 50.1983 31.342 50.6756 31.881 51.1413C36.8967 55.4254 41.8537 57.16 44.9123 55.4021C48.0764 53.586 49.1076 48.0795 47.7717 41.3739C47.6662 40.8617 47.549 40.3378 47.4201 39.8023C47.7951 39.6975 48.1584 39.5811 48.5217 39.4647C55.2834 37.2411 60.1818 33.6439 60.1818 29.9535C60.1818 26.4261 55.5646 23.0034 49.1896 20.8264ZM33.3342 10.9427C37.6935 7.17076 41.7599 5.69227 43.6115 6.75166C45.592 7.8809 46.3537 12.4444 45.1115 18.4399C45.0295 18.8357 44.9474 19.2199 44.842 19.604C42.2404 19.022 39.6037 18.6029 36.9553 18.37C35.4318 16.2047 33.7678 14.1325 31.9631 12.1883C32.4201 11.7576 32.8654 11.3501 33.3342 10.9427ZM19.7756 35.9955C20.3732 37.0083 20.9826 38.0211 21.6271 39.0107C19.799 38.8128 17.9826 38.5217 16.1896 38.1376C16.7053 36.4612 17.3498 34.7265 18.0998 32.957C18.6389 33.9815 19.1896 34.9943 19.7756 35.9955ZM16.2248 21.9906C17.9123 21.618 19.7053 21.3154 21.5685 21.0825C20.9474 22.0488 20.3381 23.0383 19.7639 24.0395C19.1896 25.0291 18.6271 26.0419 18.0998 27.0663C17.3615 25.3317 16.7404 23.6321 16.2248 21.9906ZM19.4357 30.0117C20.2092 28.4051 21.0529 26.8335 21.9435 25.2852C22.8342 23.7368 23.7951 22.2351 24.8029 20.7566C26.5607 20.6285 28.3537 20.5587 30.1818 20.5587C32.0099 20.5587 33.8146 20.6285 35.5607 20.7566C36.5568 22.2234 37.506 23.7252 38.4084 25.2619C39.3107 26.7986 40.1545 28.3702 40.9514 29.9651C40.1662 31.5717 39.3224 33.1549 38.4201 34.7149C37.5295 36.2632 36.5803 37.765 35.5842 39.2552C33.8381 39.3832 32.0217 39.4414 30.1818 39.4414C28.342 39.4414 26.5607 39.3832 24.8381 39.2784C23.8185 37.7999 22.8576 36.2865 21.9553 34.7382C21.0529 33.1899 20.2209 31.6182 19.4357 30.0117ZM40.5998 35.9722C41.1974 34.9477 41.7599 33.9116 42.3107 32.8639C43.0607 34.5519 43.717 36.2632 44.2912 38.0211C42.4748 38.4286 40.6349 38.7429 38.7834 38.9525C39.4162 37.9746 40.0139 36.9734 40.5998 35.9722ZM42.2873 27.0663C41.7365 26.0419 41.174 25.0174 40.5881 24.0162C40.0139 23.0267 39.4162 22.0488 38.7951 21.0825C40.6818 21.3154 42.4865 21.6297 44.174 22.0139C43.6349 23.7368 43.0021 25.4132 42.2873 27.0663ZM30.2053 13.9695C31.4357 15.2966 32.5959 16.6936 33.674 18.1372C31.3537 18.0324 29.0217 18.0324 26.7014 18.1372C27.8498 16.6354 29.0334 15.2384 30.2053 13.9695ZM16.6115 6.83315C18.5803 5.69227 22.9514 7.3221 27.5568 11.3734C27.8498 11.6295 28.1428 11.9089 28.4474 12.1883C26.631 14.1325 24.9553 16.2047 23.4201 18.37C20.7717 18.6029 18.1467 19.0103 15.5451 19.5808C15.3928 18.987 15.2639 18.3817 15.1349 17.7763C14.0334 12.1417 14.7599 7.89254 16.6115 6.83315ZM13.7404 37.5205C13.2482 37.3808 12.7678 37.2295 12.2873 37.0665C9.7912 36.2865 6.95526 35.0525 4.90448 33.4343C3.72089 32.6194 2.92401 31.3621 2.70135 29.9535C2.70135 27.8231 6.40448 25.0989 11.7482 23.2479C12.4162 23.015 13.0959 22.8055 13.7756 22.6076C14.5724 25.1338 15.5334 27.6135 16.6467 30.0117C15.5217 32.4448 14.549 34.9594 13.7404 37.5205ZM27.4045 48.9294C25.4709 50.6873 23.2326 52.0843 20.7951 53.0389C19.4943 53.6559 17.9943 53.7141 16.6584 53.1902C14.7951 52.1192 14.0217 48.0097 15.0764 42.4799C15.2053 41.828 15.3459 41.176 15.5099 40.5357C18.1349 41.0945 20.7834 41.4787 23.467 41.6766C25.0139 43.8536 26.7131 45.9375 28.5295 47.8933C28.1545 48.2542 27.7795 48.6034 27.4045 48.9294ZM30.2756 46.1004C29.0803 44.8199 27.8849 43.3996 26.7248 41.8745C27.8498 41.9211 29.0099 41.9444 30.1818 41.9444C31.3889 41.9444 32.5724 41.9211 33.7443 41.8629C32.6662 43.3414 31.506 44.75 30.2756 46.1004ZM45.592 49.5929C45.4865 51.0132 44.7834 52.3404 43.6584 53.2368C41.7951 54.3078 37.8224 52.9108 33.5334 49.2553C33.0412 48.8362 32.549 48.3822 32.0451 47.9165C33.8381 45.9491 35.4904 43.8652 36.9904 41.6766C39.674 41.4554 42.3459 41.048 44.9826 40.4542C45.0998 40.9315 45.2053 41.4089 45.299 41.8745C45.8732 44.3891 45.967 47.0085 45.592 49.5929ZM47.7248 37.0782C47.3967 37.1829 47.0685 37.2877 46.7287 37.3808C45.9084 34.843 44.9006 32.3633 43.7404 29.9535C44.8654 27.5786 45.8146 25.1338 46.6115 22.6309C47.2209 22.8055 47.8068 22.9918 48.3693 23.178C53.8303 25.0407 57.6623 27.8114 57.6623 29.9302C57.6623 32.212 53.5725 35.1573 47.7248 37.0782ZM30.1818 35.3319C33.1467 35.3319 35.549 32.9454 35.549 30C35.549 27.0547 33.1467 24.6682 30.1818 24.6682C27.217 24.6682 24.8146 27.0547 24.8146 30C24.8146 32.9454 27.217 35.3319 30.1818 35.3319Z" fill="#00FFFF"/>
</g>
<defs>
<clipPath id="clip0_8_1252">
<rect width="60" height="59.6053" fill="white" transform="translate(0.181824 0.197388)"/>
</clipPath>
</defs>
</svg>
