<svg width="61" height="70" viewBox="0 0 61 70" fill="none" xmlns="http://www.w3.org/2000/svg">
<g id="linux" clip-path="url(#clip0_8_1256)">
<path id="Vector" d="M30.2987 17.3446C30.4326 17.4111 30.5398 17.5708 30.7005 17.5708C30.8478 17.5708 31.0755 17.5176 31.0889 17.3712C31.1157 17.185 30.8344 17.0652 30.6603 16.9854C30.4326 16.8922 30.138 16.8523 29.9237 16.9721C29.8701 16.9987 29.8166 17.0652 29.8434 17.1184C29.8835 17.2914 30.1514 17.2648 30.2987 17.3446ZM27.3657 17.5708C27.5264 17.5708 27.6335 17.4111 27.7675 17.3446C27.9148 17.2648 28.1826 17.2914 28.2362 17.1317C28.263 17.0785 28.2094 17.012 28.1559 16.9854C27.9416 16.8656 27.6469 16.9056 27.4193 16.9987C27.2451 17.0785 26.9639 17.1983 26.9907 17.3845C27.0041 17.5176 27.2318 17.5841 27.3657 17.5708ZM56.9773 54.6644C56.4951 54.1322 56.2675 53.1211 56.013 52.0434C55.7719 50.9657 55.4907 49.8082 54.6068 49.0631C54.4326 48.9168 54.2585 48.7837 54.071 48.6773C53.8969 48.5708 53.7094 48.4777 53.5219 48.4112C54.7541 44.779 54.2719 41.1601 53.0264 37.8871C51.4996 33.8824 48.8344 30.3833 46.7987 27.9884C44.5085 25.1279 42.2853 22.4137 42.3255 18.409C42.3925 12.3021 43.0085 0.953163 32.1737 0.939858C18.4594 0.913248 21.888 14.697 21.7407 18.9279C21.513 22.0412 20.8835 24.4893 18.7273 27.536C16.196 30.5296 12.6335 35.3592 10.946 40.4017C10.1425 42.7833 9.76747 45.2047 10.1157 47.4932C9.24515 48.2648 8.5889 49.449 7.89247 50.1807C7.32997 50.7528 6.513 50.9657 5.61568 51.285C4.71836 51.6043 3.74068 52.0833 3.13801 53.2142C2.85676 53.7331 2.76301 54.2919 2.76301 54.864C2.76301 55.3829 2.84336 55.9151 2.92372 56.434C3.08443 57.5116 3.25854 58.5228 3.03086 59.2013C2.33443 61.1172 2.24068 62.4477 2.73622 63.4189C3.24515 64.3902 4.263 64.8159 5.42818 65.0554C7.74515 65.5344 10.8925 65.4147 13.3701 66.7185C16.0219 68.1022 18.7139 68.5945 20.8568 68.1022C22.4103 67.7563 23.6826 66.825 24.3255 65.4147C25.9996 65.4014 27.8478 64.6962 30.7943 64.5365C32.7898 64.3769 35.2943 65.2417 38.1737 65.082C38.2541 65.388 38.3612 65.6941 38.5085 65.9734V65.9868C39.6201 68.2086 41.696 69.2198 43.9059 69.0469C46.1291 68.8739 48.4728 67.5833 50.3746 65.3348C52.196 63.1528 55.196 62.2481 57.1916 61.0507C58.1826 60.452 58.9862 59.7069 59.0532 58.6159C59.1068 57.5249 58.4639 56.3142 56.9773 54.6644ZM30.6871 12.5549C31.9996 9.60125 35.2675 9.65447 36.58 12.5017C37.4505 14.391 37.0621 16.6128 36.0041 17.8768C35.7898 17.7704 35.2139 17.5309 34.3166 17.2249C34.4639 17.0652 34.7318 16.8656 34.8389 16.6128C35.4818 15.0429 34.8121 13.0206 33.6201 12.9807C32.6425 12.9141 31.7585 14.4176 32.0398 16.0407C31.4907 15.7746 30.7809 15.5751 30.2987 15.4553C30.1648 14.5373 30.2585 13.5128 30.6871 12.5549ZM25.2362 11.0249C26.5889 11.0249 28.0219 12.9141 27.7943 15.4819C27.3255 15.615 26.8434 15.8146 26.4282 16.094C26.5889 14.9098 25.9862 13.4197 25.1425 13.4862C24.0175 13.5794 23.83 16.3068 24.9014 17.2249C25.0353 17.3313 25.1559 17.1983 24.1112 17.9566C22.0219 16.0141 22.705 11.0249 25.2362 11.0249ZM23.4148 19.1008C24.2451 18.4888 25.2362 17.7704 25.3032 17.7038C25.9326 17.1184 27.1112 15.8146 29.0398 15.8146C29.9907 15.8146 31.1291 16.1206 32.5085 16.9987C33.3523 17.5442 34.0219 17.5841 35.5353 18.236C36.6603 18.7017 37.3701 19.5266 36.9416 20.6575C36.5934 21.6021 35.4684 22.5734 33.9014 23.0657C32.4148 23.5446 31.2496 25.1944 28.7853 25.0481C28.263 25.0214 27.8478 24.915 27.4996 24.7687C26.4282 24.303 25.8657 23.385 24.821 22.7729C23.6693 22.1343 23.0532 21.3893 22.8523 20.7373C22.6648 20.0854 22.8523 19.5399 23.4148 19.1008ZM23.8568 63.5387C23.4951 68.2086 17.9773 68.1155 13.7719 65.9335C9.76747 63.8314 4.58443 65.0687 3.5264 63.0198C3.20497 62.3945 3.20497 61.3301 3.87461 59.5074V59.4807C4.19604 58.4696 3.95497 57.352 3.79426 56.3009C3.63354 55.2631 3.55318 54.3052 3.91479 53.64C4.38354 52.7485 5.05318 52.4292 5.89693 52.1365C7.2764 51.6442 7.47729 51.6842 8.52193 50.8193C9.25854 50.061 9.79425 49.103 10.4371 48.4245C11.1201 47.6927 11.7764 47.3468 12.8076 47.5065C13.8925 47.6661 14.83 48.4112 15.7407 49.6352L18.3657 54.3717C19.638 57.0194 24.138 60.8112 23.8568 63.5387ZM23.6693 60.0928C23.1201 59.2146 22.3835 58.2833 21.7407 57.485C22.6916 57.485 23.6425 57.1923 23.9773 56.3009C24.2853 55.476 23.9773 54.3185 22.9862 52.988C21.1782 50.5666 17.8568 48.664 17.8568 48.664C16.0487 47.5464 15.0309 46.176 14.5621 44.6859C14.0934 43.1957 14.1603 41.5859 14.5219 40.0026C15.2184 36.9558 17.013 33.9888 18.1648 32.1262C18.4728 31.9 18.2719 32.5519 16.9996 34.8936C15.8612 37.0356 13.7318 41.985 16.6514 45.8567C16.7318 43.1026 17.388 40.2953 18.4996 37.6743C20.1068 34.0288 23.4951 27.709 23.763 22.6798C23.9103 22.7863 24.3791 23.1056 24.5934 23.2253C25.2094 23.5845 25.6782 24.1167 26.2809 24.5957C27.9416 25.9262 30.0978 25.8197 31.9594 24.7554C32.7898 24.2897 33.4594 23.7575 34.0889 23.5579C35.4148 23.1455 36.4728 22.4137 37.0755 21.5622C38.1068 25.6069 40.5175 31.4476 42.0576 34.2949C42.8746 35.8116 44.5085 39.018 45.2184 42.8897C45.6603 42.8764 46.1559 42.9429 46.6782 43.076C48.5264 38.3262 45.1112 33.2039 43.5576 31.7803C42.9282 31.1682 42.9014 30.9021 43.2094 30.9155C44.8969 32.4056 47.1201 35.3991 47.9237 38.7652C48.2987 40.3086 48.3657 41.9185 47.9773 43.515C50.1737 44.4198 52.7853 45.8966 52.0889 48.1451C51.7943 48.1318 51.6603 48.1451 51.5264 48.1451C51.955 46.8013 51.0041 45.8035 48.4728 44.6726C45.8478 43.5284 43.6514 43.5284 43.3434 46.3357C41.7228 46.8945 40.8925 48.2914 40.4773 49.9678C40.1023 51.458 39.9951 53.2541 39.888 55.2764C39.821 56.3009 39.4059 57.6713 38.9773 59.1348C34.6782 62.1816 28.705 63.5121 23.6693 60.0928ZM58.1425 58.5627C58.0219 60.7979 52.6246 61.2104 49.6782 64.7494C47.9103 66.8383 45.7407 67.9958 43.8389 68.1421C41.9371 68.2885 40.2898 67.5035 39.3255 65.5743C38.696 64.0975 39.0041 62.5009 39.4728 60.7447C39.9684 58.8554 40.705 56.9129 40.7987 55.343C40.9059 53.3206 41.0264 51.5511 41.3612 50.194C41.7094 48.8236 42.2451 47.9056 43.196 47.3867C43.2362 47.3601 43.2898 47.3468 43.33 47.3202C43.4371 49.0764 44.3076 50.8593 45.8478 51.2451C47.5353 51.6842 49.9594 50.2472 50.9907 49.0764C52.196 49.0365 53.0934 48.9567 54.0175 49.755C55.3434 50.8859 54.9684 53.7863 56.3076 55.2897C57.7273 56.8331 58.1826 57.8842 58.1425 58.5627ZM23.9371 20.724C24.205 20.9768 24.5666 21.3227 25.0085 21.6687C25.8925 22.3605 27.1246 23.079 28.6648 23.079C30.2184 23.079 31.6782 22.294 32.9237 21.642C33.58 21.2961 34.3835 20.7107 34.9059 20.2583C35.4282 19.806 35.696 19.4202 35.321 19.3802C34.946 19.3403 34.9728 19.7262 34.5175 20.0588C33.9282 20.4845 33.2184 21.0433 32.6559 21.3626C31.6648 21.9214 30.0443 22.7197 28.6514 22.7197C27.2585 22.7197 26.1469 22.0811 25.3166 21.4292C24.9014 21.0965 24.5532 20.7639 24.2853 20.5111C24.0844 20.3249 24.0309 19.8991 23.7094 19.8592C23.5219 19.8459 23.4684 20.3515 23.9371 20.724Z" fill="#18181B"/>
</g>
<defs>
<clipPath id="clip0_8_1256">
<rect width="60" height="68.1203" fill="white" transform="translate(0.727295 0.939819)"/>
</clipPath>
</defs>
</svg>
