<svg width="60" height="70" viewBox="0 0 60 70" fill="none" xmlns="http://www.w3.org/2000/svg">
<g id="git-alt" clip-path="url(#clip0_8_1258)">
<path id="Vector" d="M58.875 32.3348L32.6786 6.13832C31.9531 5.41535 30.9706 5.0094 29.9464 5.0094C28.9222 5.0094 27.9398 5.41535 27.2143 6.13832L21.7634 11.5758L28.6607 18.4731C32.2902 17.2544 35.7187 20.7231 34.4732 24.3258L41.1295 30.9821C45.7098 29.4017 49.3259 35.1339 45.8839 38.5758C42.3348 42.1249 36.4821 38.1874 38.3839 33.5803L32.1696 27.366V43.6919C35.558 45.366 35.1562 49.3035 33.3884 51.058C32.9616 51.4864 32.4544 51.8263 31.8959 52.0583C31.3374 52.2902 30.7387 52.4096 30.1339 52.4096C29.5292 52.4096 28.9304 52.2902 28.3719 52.0583C27.8134 51.8263 27.3062 51.4864 26.8795 51.058C24.5223 48.7008 25.3928 44.7767 28.3928 43.558V27.0847C25.6071 25.9464 25.0982 22.9731 25.9018 21.058L19.0982 14.241L1.13838 32.2008C0.415412 32.9263 0.00946045 33.9088 0.00946045 34.933C0.00946045 35.9572 0.415412 36.9396 1.13838 37.6651L27.3348 63.8615C28.0603 64.5845 29.0427 64.9905 30.067 64.9905C31.0912 64.9905 32.0736 64.5845 32.7991 63.8615L58.875 37.7856C59.598 37.0602 60.0039 36.0777 60.0039 35.0535C60.0039 34.0293 59.598 33.0468 58.875 32.3214V32.3348Z" fill="#FF5437"/>
</g>
<defs>
<clipPath id="clip0_8_1258">
<rect width="60" height="68.5714" fill="white" transform="translate(0 0.714233)"/>
</clipPath>
</defs>
</svg>
