<svg width="61" height="54" viewBox="0 0 61 54" fill="none" xmlns="http://www.w3.org/2000/svg">
<g id="bootstrap" clip-path="url(#clip0_8_1250)">
<path id="Vector" d="M35.6487 21.3167C35.6487 19.0163 34.0237 17.7464 31.1695 17.7464H25.9195V25.1576H30.3466C33.7633 25.1472 35.6487 23.7732 35.6487 21.3167ZM54.7633 19.9843C53.7737 16.768 53.6279 12.8229 53.7424 9.7731C53.857 6.59836 51.3779 3.68384 48.0445 3.68384H13.7945C10.4507 3.68384 7.982 6.60877 8.09658 9.7731C8.20075 12.8229 8.06533 16.768 7.07575 19.9843C6.07575 23.2111 4.39866 25.2513 1.63824 25.5115V28.4781C4.38825 28.7383 6.07575 30.7785 7.07575 34.0053C8.06533 37.2216 8.21116 41.1666 8.09658 44.2165C7.982 47.3912 10.4612 50.3057 13.7945 50.3057H48.0341C51.3779 50.3057 53.8466 47.3808 53.732 44.2165C53.6279 41.1666 53.7633 37.2216 54.7529 34.0053C55.7529 30.7785 57.4299 28.7383 60.1799 28.4781V25.5115C57.4404 25.2513 55.7529 23.2111 54.7633 19.9843ZM32.1799 39.3971H21.982V14.5925H32.1278C36.6383 14.5925 39.5966 17.0282 39.5966 20.7754C39.5966 23.4089 37.607 25.7613 35.0653 26.1673V26.3026C38.5237 26.6773 40.8466 29.0714 40.8466 32.371C40.8466 36.7532 37.5862 39.3971 32.1799 39.3971ZM31.1383 28.0825H25.9195V36.2432H31.3674C34.9299 36.2432 36.8153 34.8172 36.8153 32.1316C36.8153 29.4565 34.8778 28.0825 31.1383 28.0825Z" fill="#563D7C"/>
</g>
<defs>
<clipPath id="clip0_8_1250">
<rect width="60" height="53.2941" fill="white" transform="translate(0.909088 0.352905)"/>
</clipPath>
</defs>
</svg>
