<svg width="61" height="64" viewBox="0 0 61 64" fill="none" xmlns="http://www.w3.org/2000/svg">
<g id="github" clip-path="url(#clip0_8_1257)">
<path id="Vector" d="M20.4322 49.1339C20.4322 49.3763 20.154 49.5701 19.8032 49.5701C19.404 49.6065 19.1257 49.4126 19.1257 49.1339C19.1257 48.8916 19.404 48.6977 19.7548 48.6977C20.1177 48.6613 20.4322 48.8552 20.4322 49.1339ZM16.6701 48.5886C16.5854 48.831 16.8274 49.1097 17.1903 49.1824C17.5048 49.3036 17.8677 49.1824 17.9403 48.94C18.0128 48.6977 17.783 48.419 17.4201 48.3099C17.1056 48.2251 16.7548 48.3463 16.6701 48.5886ZM22.0169 48.3826C21.6661 48.4675 21.4241 48.6977 21.4604 48.9764C21.4967 49.2187 21.8112 49.3763 22.1741 49.2914C22.5249 49.2066 22.7669 48.9764 22.7306 48.7341C22.6943 48.5038 22.3677 48.3463 22.0169 48.3826ZM29.9766 1.94897C13.1983 1.94897 0.363647 14.7085 0.363647 31.5153C0.363647 44.9534 8.8072 56.4528 20.8677 60.5C22.4161 60.7787 22.9604 59.8214 22.9604 59.0338C22.9604 58.2825 22.9241 54.1384 22.9241 51.5937C22.9241 51.5937 14.4564 53.4113 12.6782 47.9828C12.6782 47.9828 11.2991 44.4566 9.31526 43.5478C9.31526 43.5478 6.5451 41.6454 9.50881 41.6818C9.50881 41.6818 12.5209 41.9241 14.1782 44.808C16.8274 49.4853 21.2669 48.1403 22.9967 47.3406C23.2749 45.4018 24.0612 44.0568 24.9322 43.257C18.1701 42.5057 11.3475 41.5242 11.3475 29.8673C11.3475 26.5351 12.2669 24.8629 14.2024 22.7302C13.8878 21.9426 12.8596 18.6951 14.5169 14.5025C17.0451 13.7149 22.8636 17.7742 22.8636 17.7742C25.283 17.0957 27.8838 16.7443 30.4604 16.7443C33.037 16.7443 35.6378 17.0957 38.0572 17.7742C38.0572 17.7742 43.8757 13.7028 46.404 14.5025C48.0612 18.7073 47.033 21.9426 46.7185 22.7302C48.654 24.875 49.8395 26.5472 49.8395 29.8673C49.8395 41.5606 42.7145 42.4936 35.9524 43.257C37.0653 44.2143 38.0088 46.0319 38.0088 48.8795C38.0088 52.963 37.9725 58.0159 37.9725 59.0096C37.9725 59.7972 38.529 60.7545 40.0653 60.4758C52.162 56.4528 60.3636 44.9534 60.3636 31.5153C60.3636 14.7085 46.7548 1.94897 29.9766 1.94897ZM12.1217 43.7417C11.9645 43.8629 12.0007 44.1416 12.2064 44.3718C12.3999 44.5657 12.6782 44.6505 12.8354 44.493C12.9927 44.3718 12.9564 44.0931 12.7507 43.8629C12.5572 43.669 12.279 43.5842 12.1217 43.7417ZM10.8153 42.7602C10.7306 42.9177 10.8516 43.1116 11.0935 43.2328C11.287 43.354 11.529 43.3176 11.6136 43.148C11.6983 42.9904 11.5774 42.7966 11.3354 42.6754C11.0935 42.6027 10.8999 42.639 10.8153 42.7602ZM14.7346 47.074C14.5411 47.2315 14.6136 47.595 14.8919 47.8252C15.1701 48.1039 15.5209 48.1403 15.6782 47.9464C15.8354 47.7889 15.7628 47.4254 15.5209 47.1951C15.2548 46.9164 14.8919 46.8801 14.7346 47.074ZM13.3556 45.2927C13.162 45.4139 13.162 45.7289 13.3556 46.0076C13.5491 46.2863 13.8757 46.4075 14.033 46.2863C14.2266 46.1288 14.2266 45.8138 14.033 45.5351C13.8636 45.2564 13.5491 45.1352 13.3556 45.2927Z" fill="#24292E"/>
</g>
<defs>
<clipPath id="clip0_8_1257">
<rect width="60" height="62.0408" fill="white" transform="translate(0.363647 0.979614)"/>
</clipPath>
</defs>
</svg>
